<svg width="55" height="31" viewBox="0 0 55 31" fill="none" xmlns="http://www.w3.org/2000/svg">
<path d="M53.2924 20.1347C51.5743 19.4419 50.9615 16.4424 51.5743 14.2203C51.2596 13.8485 50.5144 11.3011 50.2702 7.31309C50.0093 3.05893 49.1772 3.59123 49.1772 3.59123L49.2269 8.96068C49.2269 8.96068 48.3409 11.0307 47.9269 15.6567C47.5129 20.2826 50.4937 21.7274 50.4937 21.7274L47.1817 30.599C47.1817 30.599 47.1817 30.6328 44.5777 30.599C46.9375 25.7534 46.5028 22.7582 46.5028 22.7582C46.5028 22.7582 44.557 20.7726 42.7147 18.6477C42.9517 19.883 43.4964 21.0352 44.2962 21.9935L40.3383 30.6582L37.6308 30.8187C38.7501 29.3411 39.5489 27.6375 39.974 25.821C40.802 22.5808 39.56 19.763 37.2126 17.6887C34.3146 18.7533 28.9327 18.8589 28.9327 18.8589L31.0648 22.116L28.7712 30.6075L26.7426 30.6582C27.0788 29.5116 27.3225 28.3389 27.4712 27.1518C27.8852 24.4945 27.0034 23.6411 27.0034 23.6411L19.0339 16.2523C19.0339 16.2523 16.1359 17.638 13.979 18.8589C14.245 19.3656 14.3842 19.9316 14.3842 20.5065C14.3842 21.0813 14.245 21.6473 13.979 22.1541L8.66741 27.4179C8.66741 27.4179 8.46041 27.4179 8.08367 27.3926C8.6149 26.6863 8.87147 25.8046 8.80403 24.9169C8.80403 24.9169 8.04227 26.3787 6.98243 27.0081C6.56843 27.0968 4.96626 26.8603 4.75925 26.4082C6.13229 23.9873 6.94377 21.2777 7.13147 18.4871C7.22983 17.2558 7.20764 16.0175 7.06523 14.7906L23.65 0.18199C23.65 0.18199 30.3568 1.98166 34.7286 2.16755C39.7298 2.37878 45.1821 0.148193 45.1821 0.148193C46.4303 0.217504 47.6687 0.412788 48.8791 0.731186C50.3116 1.21279 51.301 2.63648 51.3631 6.10064C51.537 12.822 52.4644 13.5951 52.4644 13.5951C55.3417 16.0411 54.82 17.8492 53.2924 20.1347ZM16.935 12.2897C12.795 11.1363 12.1905 15.1793 12.1905 15.1793C14.4303 15.5806 16.2312 14.9596 16.935 12.2897Z" fill="#151B1A"/>
<path d="M22.5238 30.5016H20.0398C20.0398 30.5016 22.3416 26.8684 22.6563 20.8062C24.5317 22.5256 25.2852 23.2015 25.2852 23.2015L22.5238 30.5016Z" fill="#151B1A"/>
<path d="M6.37402 15.4284C6.37402 15.4284 3.76998 18.5419 0.851288 15.3228C2.8302 13.4386 5.51291 13.7808 6.37402 15.4284Z" fill="#151B1A"/>
<path d="M10.9899 20.0881C10.8224 20.128 10.6487 20.1319 10.4797 20.0996C10.3106 20.0674 10.15 19.9997 10.0079 19.9008C9.86589 19.8019 9.74551 19.674 9.65443 19.5252C9.56334 19.3764 9.50353 19.2098 9.47879 19.0362C9.43024 18.8459 9.41958 18.6477 9.44744 18.4531C9.47529 18.2586 9.54111 18.0717 9.64098 17.9036C9.74085 17.7355 9.87275 17.5895 10.0289 17.4743C10.185 17.3591 10.3622 17.2771 10.55 17.233C10.7377 17.1889 10.9322 17.1837 11.122 17.2177C11.3118 17.2517 11.4929 17.3241 11.6548 17.4308C11.8166 17.5375 11.9558 17.6762 12.0642 17.8388C12.1726 18.0013 12.2479 18.1844 12.2857 18.3772C12.3339 18.779 12.2249 19.184 11.9823 19.5043C11.7397 19.8246 11.3831 20.0344 10.9899 20.0881Z" fill="white"/>
<path d="M10.9315 19.3742C10.8458 19.3958 10.7566 19.3987 10.6697 19.3828C10.5829 19.3669 10.5003 19.3326 10.4272 19.282C10.3542 19.2314 10.2925 19.1657 10.246 19.0891C10.1995 19.0126 10.1692 18.9269 10.1573 18.8377C10.1356 18.7414 10.1326 18.6417 10.1486 18.5443C10.1646 18.4469 10.1993 18.3537 10.2506 18.2699C10.3019 18.1861 10.3689 18.1135 10.4477 18.0562C10.5265 17.9989 10.6157 17.9579 10.71 17.9357C10.8043 17.9135 10.902 17.9105 10.9975 17.9269C11.0929 17.9432 11.1843 17.9786 11.2664 18.0309C11.3485 18.0833 11.4196 18.1516 11.4758 18.2321C11.532 18.3125 11.5721 18.4035 11.5939 18.4997C11.6186 18.7051 11.5628 18.9122 11.4388 19.0759C11.3148 19.2396 11.1325 19.3468 10.9315 19.3742Z" fill="#151B1A"/>
</svg>
