<svg width="39" height="34" viewBox="0 0 39 34" fill="none" xmlns="http://www.w3.org/2000/svg">
<path d="M10.9934 23.2245C11.5948 29.7706 5.34257 31.273 9.95497 33.4027C14.2503 35.4264 19.1116 32.1252 21.8075 26.1411C24.5034 20.1571 22.2206 13.8064 19.7445 11.5451C15.8762 8.00374 9.93981 11.7265 10.9934 23.2245Z" fill="black"/>
<path d="M11.6911 23.1036C12.8382 29.5744 21.2255 25.8197 18.7304 30.2822C16.5145 33.2589 13.8881 34.8967 9.99701 33.4761C8.88149 33.0673 6.83869 32.0375 5.59305 30.8405C2.07469 27.8382 -0.964874 21.6421 0.287082 16.7427C1.58831 12.316 9.76329 12.2279 11.6911 23.1036Z" fill="black"/>
<path d="M30.8763 8.11716C29.163 11.3642 32.0738 13.5087 29.2315 13.597C26.5787 13.7027 24.7692 10.9339 24.6569 7.25859C24.5446 3.58327 27.087 0.80012 28.8527 0.17396C31.6131 -0.804655 33.8871 2.41354 30.8763 8.11716Z" fill="black"/>
<path d="M30.8189 8.21893C28.7957 11.1217 25.1841 7.57718 25.5255 10.2543C26.0449 12.1498 27.075 13.4884 29.4445 13.594C30.1254 13.6247 31.4278 13.5452 32.349 13.2212C34.8673 12.4874 37.8301 10.1072 38.2396 7.47248C38.5227 5.06251 34.2204 3.33942 30.8189 8.21893Z" fill="black"/>
</svg>
