<svg width="36" height="44" viewBox="0 0 36 44" fill="none" xmlns="http://www.w3.org/2000/svg">
<path d="M15.209 30.0487C15.209 30.0487 17.0863 35.1711 19.1709 35.3711C21.2556 35.5711 21.9131 29.3647 21.9131 29.3647L15.209 30.0487Z" fill="#151B1A"/>
<path d="M18.3652 32.8642L19.5635 42.8157L20.6296 42.8798L19.9184 32.4321L18.3652 32.8642Z" fill="#151B1A"/>
<path d="M22.0828 42.7452L21.9169 43.3895L14.8948 44.0002L14.8503 43.4201L17.3682 43.1788L14.4785 42.817L14.8457 42.3269L22.0828 42.7452Z" fill="#151B1A"/>
<path d="M11.0809 30.8882L4.14941 38.1678L4.7808 39.0243L12.4066 31.7981L11.0809 30.8882Z" fill="#151B1A"/>
<path d="M6.15721 39.9467L5.59648 40.3116L0 36.0519L0.361014 35.5939L2.38269 37.1054L0.496202 34.9007L1.09994 34.7847L6.15721 39.9467Z" fill="#151B1A"/>
<path d="M3.13064 17.7002L1.35322 19.3796C1.0091 19.7201 0.910785 20.511 1.41928 21.0896C1.46687 21.1433 1.52498 21.1867 1.59005 21.2172C1.65513 21.2478 1.72579 21.2648 1.7977 21.2672C1.86962 21.2696 1.94128 21.2574 2.00829 21.2314C2.0753 21.2053 2.13625 21.1659 2.18739 21.1156L3.32727 19.9858C3.19362 19.3903 3.03078 18.4743 3.13064 17.7002Z" fill="#151B1A"/>
<path d="M7.00841 16.0483L9.9165 12.9688L9.01012 12.0894L8.01925 13.0344L6.3125 14.6696C6.39085 15.1948 6.60592 15.7261 7.00841 16.0483Z" fill="#151B1A"/>
<path d="M35.8676 18.9855C35.1164 16.9213 31.5662 18.245 31.5662 18.245C31.5662 18.245 33.8705 15.3167 32.1807 14.1808C29.3955 12.5685 26.6656 19.5535 24.8867 21.3291C23.5824 22.633 21.7482 22.6727 20.278 21.0237C16.3084 16.1579 17.5589 7.78818 17.9122 7.52252C24.2107 5.11175 22.8758 1.59559 19.1842 3.31932C21.6268 -1.4839 15.4711 -0.664027 15.5157 3.15595C15.0548 2.15286 14.2191 2.27653 13.8719 2.72388C13.3557 3.38955 13.5754 4.88578 14.8351 5.91483C14.6923 6.20949 14.5463 6.52554 14.405 6.86448C13.5324 6.40645 13.2083 6.20186 12.9655 6.08888C13.047 6.71028 13.1499 8.09658 13.2467 8.37904C13.514 9.15158 13.4341 8.49049 12.7459 8.9699C12.1314 9.40044 11.6259 9.70885 11.1267 10.1516C10.3048 10.8784 11.669 11.625 12.4878 11.5807C11.1278 13.5152 10.2202 15.7276 9.83163 18.0557C10.8299 18.4034 11.9089 18.4523 12.9348 18.1962L13.1914 18.5366C13.1914 18.5366 12.6122 18.9321 11.1466 19.0084C9.78247 19.0817 8.31844 18.474 7.59334 17.7427C7.57491 17.7259 7.55954 17.7076 7.54111 17.6908C7.37673 17.5381 7.23386 17.3855 7.09253 17.2328C5.70992 15.7564 5.73757 14.5625 5.73757 14.5625L6.90818 13.6464C6.45064 13.5386 5.97919 13.501 5.51021 13.5349C4.69447 13.5762 4.04158 14.0205 3.79271 14.9243C2.96929 18.0481 3.65291 24.9888 11.3356 27.9644C10.4615 29.4805 9.7118 31.2607 10.145 32.3921C10.7288 33.5692 13.1422 32.6257 14.8428 31.7692C14.4213 30.5452 14.2099 29.2596 14.2176 27.966L14.5755 27.8744C14.8314 29.0901 15.238 30.2696 15.7861 31.3859C16.0788 31.2289 16.3477 31.0315 16.5849 30.7997L16.5019 30.6546C18.7371 31.5539 21.0215 31.4592 22.9311 30.4348C25.3475 29.1614 26.8838 26.1964 27.5121 23.3597C29.142 24.3109 31.5892 25.1292 32.5586 24.7659C33.4896 24.4178 33.7292 23.3124 32.9964 22.236C34.2116 22.32 36.5805 20.9413 35.8676 18.9855Z" fill="#151B1A"/>
<path d="M11.3685 13.3626C9.02266 12.9443 7.76449 11.2664 8.11167 9.02965C8.51109 6.45857 10.9076 4.6463 13.3241 5.08448C15.2674 5.43716 16.9957 7.96092 16.6347 9.92129C16.2061 12.2466 13.8265 13.8023 11.3685 13.3626Z" fill="white"/>
<path d="M11.9442 11.0754C10.9073 10.8892 10.3389 10.141 10.494 9.14253C10.6722 7.99593 11.7399 7.18827 12.8183 7.38369C13.6863 7.53637 14.4575 8.66771 14.2962 9.54102C14.1042 10.5792 13.0411 11.2724 11.9442 11.0754Z" fill="#151B1A"/>
<path d="M12.3267 3.40967C11.1669 3.40967 10.0332 3.75146 9.06894 4.39181C8.10464 5.03216 7.35306 5.94232 6.90925 7.00719C6.46543 8.07206 6.34931 9.24382 6.57556 10.3743C6.80182 11.5047 7.36029 12.5431 8.18036 13.3581C9.00042 14.1732 10.0453 14.7282 11.1827 14.9531C12.3202 15.1779 13.4992 15.0625 14.5707 14.6214C15.6421 14.1803 16.5579 13.4334 17.2022 12.475C17.8466 11.5167 18.1905 10.39 18.1905 9.23735C18.1905 7.69175 17.5727 6.20946 16.473 5.11656C15.3733 4.02365 13.8819 3.40967 12.3267 3.40967ZM12.3267 13.2344C11.5312 13.2344 10.7537 13 10.0923 12.5608C9.43087 12.1216 8.91538 11.4973 8.61098 10.767C8.30657 10.0366 8.22693 9.23292 8.38211 8.45756C8.5373 7.6822 8.92034 6.96999 9.48281 6.41099C10.0453 5.85198 10.7619 5.4713 11.5421 5.31707C12.3222 5.16284 13.1309 5.242 13.8658 5.54453C14.6007 5.84706 15.2288 6.35937 15.6707 7.01669C16.1127 7.67401 16.3485 8.4468 16.3485 9.23735C16.3485 10.2974 15.9248 11.3141 15.1706 12.0637C14.4163 12.8133 13.3933 13.2344 12.3267 13.2344Z" fill="#151B1A"/>
</svg>
