<svg xmlns="http://www.w3.org/2000/svg" viewBox="0 0 256.38 57.15"><defs><style>.cls-1{fill:#000100;}.cls-2{fill:#fff;}</style></defs><title>logo</title><g id="Layer_2" data-name="Layer 2"><g id="Layer_1-2" data-name="Layer 1"><path class="cls-1" d="M47.75,16.61c-1.85-2.29-5.74.92-5.74.92s1.63-4.7-1-5.41c-4.22-.84-4.61,9.2-6.07,12.22C33.87,26.56,31.58,27.4,29,26c-7.12-4.45-9.19-15.6-8.86-16.09C27,4.09,23.8.21,19.91,4c1-7.15-6.42-3.44-4.71,1.38-1-1.07-2-.55-2.25.17-.36,1.06.57,2.86,2.6,3.62-.05.44-.09.9-.12,1.39-1.3-.21-1.8-.32-2.15-.36.37.75,1.1,2.47,1.35,2.78.67.86.28.06-.38,1a25.08,25.08,0,0,0-1.52,2.2c-.72,1.28.09,2,1.1,1.62-.18.85-3,11.53,6,18.71C26,41,32.37,40.69,36.06,37.12h0a6.06,6.06,0,0,1-1.7-.11L34,37a1.72,1.72,0,0,1-2.22.47,1.68,1.68,0,0,1-.4-.06A1.74,1.74,0,1,1,31.9,34a1.75,1.75,0,0,1,1.34-.66,12.26,12.26,0,0,1,1.92.35,6,6,0,0,0,1.2,0,6.46,6.46,0,0,0,1.08-.22l.05,0a1.45,1.45,0,0,1,1-.23,17.61,17.61,0,0,0,.64-7.37c2.47.5,5.9.48,7-.4s.84-2.35-.56-3.4C47.11,21.56,49.5,18.78,47.75,16.61Z"/><path class="cls-2" d="M17.7,13.14A1.34,1.34,0,0,1,16,12a1.7,1.7,0,0,1,1.34-2,1.71,1.71,0,0,1,1.75,1.3A1.66,1.66,0,0,1,17.7,13.14Z"/><path class="cls-1" d="M17.63,12.26a.6.6,0,0,1-.73-.5.74.74,0,0,1,.59-.88.75.75,0,0,1,.76.57A.73.73,0,0,1,17.63,12.26Z"/><path class="cls-1" d="M14.89,12.41l-1.83.26L15,14.2s.4-.84.4-.87-.1-.42-.1-.45S14.89,12.41,14.89,12.41Z"/><path class="cls-1" d="M34,37.83a1.58,1.58,0,0,1-1.19-1.25l-6.33,1.07s2.94,6.69,5.72,6.78c2,.06,2.76-4.31,3-6.72A1.63,1.63,0,0,1,34,37.83Z"/><polygon class="cls-1" points="30.6 41.13 33.98 56.44 34.92 56.58 33.17 40.37 30.6 41.13"/><polygon class="cls-1" points="37.6 55.61 37.36 56.49 27.77 57.15 27.72 56.35 31.16 56.09 27.23 55.52 27.74 54.85 37.6 55.61"/><path class="cls-1" d="M39.1,28.6c0-.46,0-2.54,0-3-2.67-.33-5.26,1.77-7.83,2.44-2,.52-5.46,1.72-6.5,3.75-1.16,2.27,2.09,3.81,3.57,4.83.86.6,1.58,1.29,2.37,2s2.27,1,3,.12a1.55,1.55,0,0,1,1.08-.56A9.49,9.49,0,0,0,36.19,37a8.91,8.91,0,0,0,.7-.8,9.43,9.43,0,0,1-4.87.16L31.94,36a13,13,0,0,0,6-1.34h0c5.12-2.34,7.86-6.72,6.57-7.4A26.59,26.59,0,0,1,39.1,28.6Z"/><path class="cls-1" d="M24.36,38.91a5.92,5.92,0,0,0,.41.88c.6-.27,1-.47,1-.47l-5.67-7a27.62,27.62,0,0,0-1.8,2.83A18,18,0,0,0,24.36,38.91Z"/><path class="cls-1" d="M26.39,39.1c-1.16-.53-5.66-2.24-7.9-4.79a10.83,10.83,0,0,0-1.69,5.18L6.57,47.63l-5-5.71L.76,42l2.4,3.17L.53,43l-.53.6,7.3,6.26.79-.45-.85-1,10.9-7C19.66,41.76,23.7,40.9,26.39,39.1Z"/><path class="cls-1" d="M60.38,25.33,60.45,29l6.85-.12.07,4-6.67.12,0,7.17,7.52-.63.09,4.76-12.11.72-.11-5.25-.12-6.68-.08-4-.06-3.72-.08-4,4.59-.08,7.54-.14.08,4Z"/><path class="cls-1" d="M70.78,44.58l-.17-24.17,4,0,.12,19.45,3.49-.35-.1-19,4,0,.16,18.77,2.83-.1L85,20.53l4,0,.19,23Z"/><path class="cls-1" d="M103.26,38.47a5,5,0,0,1-2.21,3.9c-3,2-9.68,1.36-9.68,1.36l.55-19.43,4.76.14-.33,7.42C102.59,32.73,103.33,36.67,103.26,38.47Zm-3.42-.12c.11-1.09-.27-2.73-3.7-3.11l-.21,5.18C99.28,40.7,99.79,38.78,99.84,38.35Z"/><path class="cls-1" d="M126.07,36.33l.31,11.45-3.88.07-.18-7-8.2.35.11,6.08-2.83.09-.25-10.49,2.82-.19c.39-3.78.31-9.61.29-12.82,0-1.34-.05-2.41,0-3L123,20.7l.76,15.66Zm-9.24.24,2.55-.08-.57-11.3-1.7,0C117.14,29.39,117.11,33.47,116.83,36.57Z"/><path class="cls-1" d="M132,23.26l.28,6,3.32-.08.08,3.52-3.31.08.14,5.82,5.37-.13.1,4.15-5.37.14-4,.09-.11-4.15-.14-5.82-.09-3.52-.27-6L128,19.84l4-.1,10.31-.25.09,3.52Z"/><path class="cls-1" d="M140.36,26.08c6.73-1.06,10.08.72,10.58,5.72.52,6.35-2,8.33-6.22,8.73l.1,8.15h-4.31l-.15-17.59Zm7.41,6.07c-.19-1.92-1.21-3.19-3.11-3l.06,8C148.35,37,147.84,33,147.77,32.15Z"/><path class="cls-1" d="M156.75,22.6l.1,3.22,3.31-.1.11,3.52-3.32.09V40.84l10-.28.12,4.15-13.94.4-.44-25.91,9.34-.28.11,3.52Z"/><path class="cls-1" d="M176.36,31.73c.28,3.26-1.56,6.6-6.18,6.65,0,0-2.46.1-5.61,0l0-20.17c1.64-.15,3.31-.17,3.31-.17,3.93-.16,5.78,2.29,5.8,4.85a4.12,4.12,0,0,1-1.83,3.71A5.26,5.26,0,0,1,176.36,31.73Zm-8.83-6.62c1.95,0,3.34-.51,3.2-2.44-.11-1.43-1.75-2-3.2-1.69Zm5.23,7a3.05,3.05,0,0,0-3.11-2.83s-1,0-1.93.1l0,5.88c1.09,0,1.9,0,1.9,0A2.89,2.89,0,0,0,172.76,32.12Z"/><path class="cls-1" d="M182.43,21.83l-.13,5.8,3.31,0,0,3.52-3.31,0,0,5.82,5.37,0,0,4.16-9.34-.06.22-22.81,4,0,5.36,0v3.52Z"/><path class="cls-1" d="M201.24,21.75l.21,19.54-3.37,0-.15-10.2-4.22.08-.06,8.25-3.37,0,.12-20.31,3.39,0,0,7.35,4.14-.08V21.78Z"/><path class="cls-1" d="M211.72,40.87c-5-.48-8.17-4-8.27-11.29a11.84,11.84,0,0,1,2.71-7.92,7.26,7.26,0,0,1,5.46-2.44c3.6.09,5.48,2.05,6.41,5.08l-3.94,1.33c-.73-3.31-3.65-2.92-5.15-1.09a6.89,6.89,0,0,0-1.36,4.68c.07,5.06,1.89,7.15,4,7.34a3.85,3.85,0,0,0,3.69-2l3.3,2.35A6.76,6.76,0,0,1,211.72,40.87Z"/><path class="cls-1" d="M226.73,28.31l6.17,14.05-4.15-.18-4.7-11.08-.09.08-.13,10.89-3.91-.15.14-21.15,3.93.05-.14,5.53,4.5-6.67,4.67.08Z"/><path class="cls-1" d="M232.06,30.62c0-6.48,2.38-9.73,6.75-9.61a4.12,4.12,0,0,1,2.81,1.34c1.51,1.58,2.29,4.51,2,8.53-.39,5.73-2.85,8.73-6.22,8.65C232.61,39.41,232.05,34.13,232.06,30.62Zm3.32-.17c0,3.75.94,4.91,2.13,5,2,.15,2.62-3.27,2.84-5.11.32-2.93-.25-4.47-.95-5.17C238.38,24,235.4,25,235.38,30.45Z"/><path class="cls-1" d="M250.44,22.49l-.09,5.57,3.62.07L253.89,32l-3.62-.07-.13,6.36,5.86.11-.09,4.54-5.86-.12-4.34-.08.09-4.54.13-6.36L246,28l.1-5.57.08-3.85,4.34.09,5.86.11-.07,3.85Z"/></g></g></svg>