<svg width="29" height="44" viewBox="0 0 29 44" fill="none" xmlns="http://www.w3.org/2000/svg">
<path d="M25.4004 0L15.218 0.787121V5.11629H25.4004V0Z" fill="#151B1A"/>
<path d="M16.2366 6.65117L11.7102 17.3953L11.8808 25.9937C14.8168 25.8217 18.1567 26.8475 19.6428 29.7473C21.8183 33.9924 20.959 40.5978 15.6905 43.0455H28.5112L29 18.4186H24.3825V17.7365L28.9154 17.1291L24.4974 5.91945L16.2366 6.65117Z" fill="#151B1A"/>
<path fill-rule="evenodd" clip-rule="evenodd" d="M0.000121508 29.1627C0.554323 29.4322 1.4539 29.857 2.3726 30.2837C-2.43552 34.5455 0.213611 44 8.96426 44C18.3483 44 21.0604 36.063 18.3483 30.7708C16.2657 26.707 10.8603 25.8884 7.83819 27.1488L8.14582 22.5117C7.32957 23.8028 5.97235 25.9683 5.04842 27.4906L2.54581 26.0932L2.65722 26.2798C3.20549 27.198 3.54487 27.7664 3.8126 28.205L0.000121508 29.1627ZM3.64875 31.2616C3.59362 31.1303 3.57332 30.9892 3.58456 30.8424C4.6052 31.3088 5.45217 31.6839 5.60021 31.721L5.85363 29.6836L7.6367 30.1861L7.75693 28.3737C8.3071 28.4388 8.72292 28.6654 8.88105 29.0418C9.20912 29.8228 8.30379 30.9528 6.85893 31.5658C5.41407 32.1787 3.97682 32.0425 3.64875 31.2616Z" fill="#151B1A"/>
</svg>
