<?xml version="1.0" ?>
<!-- Uploaded to: SVG Repo, www.svgrepo.com, Generator: SVG Repo Mixer Tools -->
<svg fill="#000000" width="800px" height="800px" viewBox="0 0 64 64" version="1.1" xml:space="preserve" xmlns="http://www.w3.org/2000/svg" xmlns:xlink="http://www.w3.org/1999/xlink">
<g id="_x32_5_attachment"/>
<g id="_x32_4_office"/>
<g id="_x32_3_pin"/>
<g id="_x32_2_business_card">
<g>
<g>
<path d="M61.0112,9.9204H2.9888C1.8921,9.9204,1,10.8125,1,11.9092v40.1816c0,1.0967,0.8921,1.9888,1.9888,1.9888h58.0225     c1.0967,0,1.9888-0.8921,1.9888-1.9888V11.9092C63,10.8125,62.1079,9.9204,61.0112,9.9204z M2.9983,16.8672h58.0031     l0.0084,30.2656H2.9998L2.9983,16.8672z M61,11.9092l0.0009,2.958H2.9982L2.998,11.9204L61,11.9092z M3,52.0908l-0.0001-2.958     h58.0106l0.0008,2.9468L3,52.0908z"/>
<path d="M45.9526,19.5654c-6.6436,0-12.0488,5.4053-12.0488,12.0493c0,6.6436,5.4053,12.0488,12.0488,12.0488     c6.6416,0,12.0449-5.4053,12.0449-12.0488C57.9976,24.9707,52.5942,19.5654,45.9526,19.5654z M45.9526,41.6636     c-2.1734,0-4.1822-0.7008-5.8279-1.8782c0.9388-2.3649,3.2468-3.9661,5.8279-3.9661c2.5791,0,4.8859,1.6016,5.825,3.9665     C50.1325,40.963,48.1248,41.6636,45.9526,41.6636z M53.3403,38.3998c-1.3822-2.757-4.2274-4.5805-7.3876-4.5805     c-3.1621,0-6.0085,1.8232-7.3909,4.5803c-1.6445-1.7899-2.658-4.1683-2.658-6.7849c0-5.541,4.5078-10.0493,10.0488-10.0493     c5.5386,0,10.0449,4.5083,10.0449,10.0493C55.9976,34.2314,54.9843,36.6099,53.3403,38.3998z"/>
<path d="M45.9526,24.105c-2.3052,0-4.1807,1.875-4.1807,4.1802s1.8755,4.1807,4.1807,4.1807s4.1802-1.8755,4.1802-4.1807     S48.2578,24.105,45.9526,24.105z M45.9526,30.4658c-1.2026,0-2.1807-0.978-2.1807-2.1807c0-1.2021,0.978-2.1802,2.1807-2.1802     c1.2021,0,2.1802,0.978,2.1802,2.1802C48.1328,29.4878,47.1548,30.4658,45.9526,30.4658z"/>
<path d="M26.8872,31.897H14.0479c-0.5522,0-1,0.4478-1,1s0.4478,1,1,1h12.8394c0.5522,0,1-0.4478,1-1     S27.4395,31.897,26.8872,31.897z"/>
<path d="M26.8872,36.2563H9.9893c-0.5522,0-1,0.4478-1,1s0.4478,1,1,1h16.8979c0.5522,0,1-0.4478,1-1     S27.4395,36.2563,26.8872,36.2563z"/>
<path d="M26.8872,40.6123H9.9893c-0.5522,0-1,0.4478-1,1s0.4478,1,1,1h16.8979c0.5522,0,1-0.4478,1-1     S27.4395,40.6123,26.8872,40.6123z"/>
</g>
<g>
<g>
<path d="M27.0459,28H9.9507C8.875,28,8,27.125,8,26.0493v-4.0986C8,20.875,8.875,20,9.9507,20h17.106      C28.1284,20,29,20.9097,29,22.0278v4.0181C29,27.1235,28.1235,28,27.0459,28z M9.9794,22v4h17.0665v-4H9.9794z"/>
</g>
</g>
</g>
</g>
<g id="_x32_1_form"/>
<g id="_x32_0_headset"/>
<g id="_x31_9_video_call"/>
<g id="_x31_8_letter_box"/>
<g id="_x31_7_papperplane"/>
<g id="_x31_6_laptop"/>
<g id="_x31_5_connection"/>
<g id="_x31_4_phonebook"/>
<g id="_x31_3_classic_telephone"/>
<g id="_x31_2_sending_mail"/>
<g id="_x31_1_man_talking"/>
<g id="_x31_0_date"/>
<g id="_x30_9_review"/>
<g id="_x30_8_email"/>
<g id="_x30_7_information"/>
<g id="_x30_6_phone_talking"/>
<g id="_x30_5_women_talking"/>
<g id="_x30_4_calling"/>
<g id="_x30_3_women"/>
<g id="_x30_2_writing"/>
<g id="_x30_1_chatting"/>
</svg>