<svg width="758" height="172" viewBox="0 0 758 172" fill="none" xmlns="http://www.w3.org/2000/svg">
<path fill-rule="evenodd" clip-rule="evenodd" d="M655.346 146.205L30.6014 155.808L25.0078 153.709L651.5 144.107L655.346 146.205Z" fill="#151B1A"/>
<path d="M180.058 147.226L182.175 139.659L185.404 140.418L183.255 147.636L180.058 147.226Z" fill="white"/>
<path d="M264.969 141.865L267.677 134.859L270.723 135.86L268.015 142.532L264.969 141.865Z" fill="white"/>
<path d="M235.183 143.479L238.478 136.346L241.545 137.609L238.274 144.393L235.183 143.479Z" fill="white"/>
<path d="M152.122 148.81L154.951 141.48L158.093 142.543L155.265 149.523L152.122 148.81Z" fill="white"/>
<g clip-path="url(#clip0_6602_348601)">
<path d="M287.937 109.488C280.233 106.455 277.486 93.3257 280.233 83.5986C278.823 81.9713 275.481 70.8203 274.386 53.3633C273.217 34.7413 269.486 37.0714 269.486 37.0714L269.708 60.5754C269.708 60.5754 265.736 69.6367 263.88 89.8861C262.023 110.135 275.389 116.46 275.389 116.46L260.538 155.294C260.538 155.294 260.538 155.442 248.863 155.294C259.443 134.083 257.494 120.972 257.494 120.972C257.494 120.972 248.77 112.281 240.509 102.979C241.572 108.386 244.014 113.43 247.6 117.625L229.854 155.553L217.715 156.256C222.733 149.788 226.315 142.331 228.221 134.379C231.933 120.195 226.365 107.861 215.84 98.781C202.846 103.441 178.714 103.903 178.714 103.903L188.274 118.161L177.991 155.331L168.895 155.553C170.402 150.534 171.495 145.401 172.162 140.204C174.018 128.572 170.064 124.837 170.064 124.837L134.331 92.4935C134.331 92.4935 121.337 98.5591 111.666 103.903C112.859 106.122 113.483 108.599 113.483 111.115C113.483 113.632 112.859 116.109 111.666 118.328L87.8505 141.369C87.8505 141.369 86.9224 141.369 85.2332 141.258C87.6151 138.167 88.7655 134.307 88.4631 130.422C88.4631 130.422 85.0476 136.82 80.2955 139.575C78.4393 139.964 71.2555 138.928 70.3274 136.95C76.4837 126.352 80.1222 114.491 80.9638 102.276C81.4048 96.886 81.3053 91.4655 80.6668 86.0951L155.029 22.1479C155.029 22.1479 185.1 30.0258 204.702 30.8394C227.126 31.7641 251.573 22 251.573 22C257.169 22.3034 262.722 23.1582 268.149 24.552C274.572 26.6601 279.008 32.8921 279.287 48.056C280.066 77.4776 284.224 80.8617 284.224 80.8617C297.125 91.5689 294.786 99.4837 287.937 109.488ZM124.92 75.1475C106.357 70.0991 103.647 87.7964 103.647 87.7964C113.69 89.5532 121.764 86.8348 124.92 75.1475Z" fill="#151B1A"/>
<path d="M149.982 154.87H138.844C138.844 154.87 149.165 138.967 150.576 112.43C158.985 119.956 162.363 122.915 162.363 122.915L149.982 154.87Z" fill="#151B1A"/>
<path d="M77.5703 88.8896C77.5703 88.8896 65.8944 102.519 52.8077 88.4273C61.6807 80.1796 73.7093 81.6775 77.5703 88.8896Z" fill="#151B1A"/>
<path d="M98.2648 109.285C97.5139 109.459 96.7349 109.476 95.977 109.335C95.2191 109.194 94.4989 108.898 93.862 108.465C93.2251 108.032 92.6853 107.472 92.2769 106.821C91.8685 106.169 91.6004 105.44 91.4894 104.68C91.2717 103.847 91.2239 102.979 91.3488 102.128C91.4738 101.276 91.7688 100.458 92.2166 99.7225C92.6644 98.9866 93.2559 98.3476 93.9559 97.8433C94.656 97.3391 95.4504 96.9799 96.2923 96.7869C97.1342 96.5939 98.0063 96.5712 98.8572 96.7199C99.708 96.8686 100.52 97.1858 101.246 97.6528C101.972 98.1198 102.596 98.727 103.082 99.4385C103.568 100.15 103.905 100.951 104.075 101.795C104.291 103.554 103.802 105.327 102.714 106.729C101.627 108.131 100.028 109.05 98.2648 109.285Z" fill="white"/>
<path d="M98.0043 106.162C97.6201 106.257 97.2203 106.269 96.8308 106.2C96.4413 106.13 96.0708 105.98 95.7435 105.758C95.4161 105.537 95.1392 105.249 94.9307 104.914C94.7221 104.579 94.5867 104.204 94.5331 103.814C94.4356 103.392 94.4224 102.956 94.4941 102.529C94.5659 102.103 94.7213 101.695 94.9514 101.328C95.1815 100.962 95.4818 100.644 95.8353 100.393C96.1887 100.142 96.5883 99.9626 97.0112 99.8654C97.4342 99.7683 97.8722 99.7551 98.3002 99.8266C98.7283 99.8981 99.138 100.053 99.506 100.282C99.874 100.511 100.193 100.811 100.445 101.163C100.697 101.515 100.877 101.913 100.974 102.334C101.085 103.233 100.835 104.14 100.279 104.856C99.723 105.573 98.9056 106.042 98.0043 106.162Z" fill="#151B1A"/>
</g>
<g clip-path="url(#clip1_6602_348601)">
<path d="M616.291 146.884L613.486 139.031L616.781 137.666L619.344 145.238L616.291 146.884Z" fill="white"/>
<path d="M705.884 13.002C705.884 13.002 687.072 28.1441 666.375 46.3338C668.236 47.3576 672.268 49.298 675.119 50.8098C679.008 73.8683 685.091 136.806 687.203 157.043C690.782 156.781 696.543 156.424 702.651 156.055L697.235 106.557L716.25 106.153L715.785 155.246C721.916 154.9 727.117 154.627 729.348 154.555C730.087 140.746 731.34 63.1188 732.509 47.679C736.35 46.4886 742.851 44.6434 744.056 44.203C723.574 26.7275 705.884 13.002 705.884 13.002ZM712.277 87.3916L699.239 87.6892L696.114 61.0832L711.621 59.2737L712.277 87.3916Z" fill="#151B1A"/>
<path d="M630.461 46.2559C630.461 46.2559 610.408 71.9452 591 98.9202C592.706 99.0988 601.736 99.444 607.092 99.7297C612.257 120.526 618.317 145.632 620.572 154.906C628.218 153.311 678.2 143.871 691.501 141.597C689.425 121.907 687.481 108.36 683.974 74.9332C686.527 72.1476 689.449 69.3382 691.382 67.0645C660.319 55.6602 630.461 46.2559 630.461 46.2559ZM644.847 128.062L632.023 130.443L624.401 104.206L639.908 101.444L644.847 128.062ZM623.375 99.4916L619.928 86.635L636.628 83.5876L639.133 96.7894L623.375 99.4916ZM663.838 124.824L651.336 126.979L645.479 100.015L660.987 98.206L663.838 124.824ZM660.45 93.0276L644.68 95.7656L642.103 82.8019L658.995 79.9449L660.45 93.0276Z" fill="#151B1A"/>
</g>
<path d="M37.3242 157.477L39.6339 151.317L45.0231 150.547L43.4833 157.477H37.3242Z" fill="white"/>
<path d="M36.5568 152.855L37.4343 151.17C40.1385 144.386 45.0255 139.407 50.6509 135.848C50.4288 136.542 40.674 150.205 39.6363 159.785C35.4475 159.882 31.9375 160.223 25.4114 160.223C24.0549 149.006 21.1591 142.076 15 135.146C24.2386 140.536 26.5483 144.386 29.2785 151.315L30.3977 153.625C30.3977 153.625 32.7074 141.306 31.1676 129.756C38.0965 137.456 36.5568 152.855 36.5568 152.855Z" fill="#151B1A"/>
<defs>
<clipPath id="clip0_6602_348601">
<rect width="240.701" height="134.273" fill="white" transform="matrix(-1 0 0 1 293.508 22)"/>
</clipPath>
<clipPath id="clip1_6602_348601">
<rect width="153" height="144" fill="white" transform="translate(591 13)"/>
</clipPath>
</defs>
</svg>
